<?xml version="1.0" encoding="UTF-8" standalone="no"?>
<!DOCTYPE svg PUBLIC "-//W3C//DTD SVG 1.1//EN"
 "http://www.w3.org/Graphics/SVG/1.1/DTD/svg11.dtd">
<!-- Generated by graphviz version 2.40.1 (20161225.0304)
 -->
<!-- Title: G Pages: 1 -->
<svg width="324pt" height="478pt"
 viewBox="0.00 0.00 323.68 478.00" xmlns="http://www.w3.org/2000/svg" xmlns:xlink="http://www.w3.org/1999/xlink">
<g id="graph0" class="graph" transform="scale(1 1) rotate(0) translate(4 474)">
<title>G</title>
<polygon fill="#ffffff" stroke="transparent" points="-4,4 -4,-474 319.678,-474 319.678,4 -4,4"/>
<!-- A0 -->
<g id="node1" class="node">
<title>A0</title>
<polygon fill="none" stroke="#000000" points="87.5,-438 87.5,-470 269.5,-470 269.5,-438 87.5,-438"/>
<text text-anchor="start" x="163.4975" y="-451" font-family="Helvetica,sans-Serif" font-size="10.00" fill="#000000">Game </text>
<polygon fill="none" stroke="#000000" points="87.5,-334 87.5,-438 269.5,-438 269.5,-334 87.5,-334"/>
<text text-anchor="start" x="110.99" y="-419" font-family="Helvetica,sans-Serif" font-size="10.00" fill="#000000"> canvas:HTMLCanvasElement</text>
<text text-anchor="start" x="107.0965" y="-407" font-family="Helvetica,sans-Serif" font-size="10.00" fill="#000000">ctx:CanvasRenderingContext2D</text>
<text text-anchor="start" x="97.365" y="-395" font-family="Helvetica,sans-Serif" font-size="10.00" fill="#000000"> KeyboardListener:KeyboardListener</text>
<text text-anchor="start" x="139.323" y="-383" font-family="Helvetica,sans-Serif" font-size="10.00" fill="#000000"> gameState:string</text>
<text text-anchor="start" x="148.7765" y="-371" font-family="Helvetica,sans-Serif" font-size="10.00" fill="#000000"> winner:string</text>
<text text-anchor="start" x="156.8345" y="-359" font-family="Helvetica,sans-Serif" font-size="10.00" fill="#000000"> Car1:Car</text>
<text text-anchor="start" x="155.445" y="-347" font-family="Helvetica,sans-Serif" font-size="10.00" fill="#000000"> Car2:Car </text>
<polygon fill="none" stroke="#000000" points="87.5,-254 87.5,-334 269.5,-334 269.5,-254 87.5,-254"/>
<text text-anchor="start" x="157.12" y="-315" font-family="Helvetica,sans-Serif" font-size="10.00" fill="#000000"> rollDice()</text>
<text text-anchor="start" x="165.723" y="-303" font-family="Helvetica,sans-Serif" font-size="10.00" fill="#000000">loop()</text>
<text text-anchor="start" x="164.338" y="-291" font-family="Helvetica,sans-Serif" font-size="10.00" fill="#000000">draw()</text>
<text text-anchor="start" x="130.7235" y="-279" font-family="Helvetica,sans-Serif" font-size="10.00" fill="#000000"> writeTextToCanvas()</text>
<text text-anchor="start" x="158.224" y="-267" font-family="Helvetica,sans-Serif" font-size="10.00" fill="#000000">random()</text>
</g>
<!-- A1 -->
<g id="node2" class="node">
<title>A1</title>
<polygon fill="none" stroke="#000000" points=".5,-172 .5,-204 191.5,-204 191.5,-172 .5,-172"/>
<text text-anchor="start" x="87.9465" y="-185" font-family="Helvetica,sans-Serif" font-size="10.00" fill="#000000">Car</text>
<polygon fill="none" stroke="#000000" points=".5,-104 .5,-172 191.5,-172 191.5,-104 .5,-104"/>
<text text-anchor="start" x="35.161" y="-153" font-family="Helvetica,sans-Serif" font-size="10.00" fill="#000000">image:HTMLImageElement</text>
<text text-anchor="start" x="69.885" y="-141" font-family="Helvetica,sans-Serif" font-size="10.00" fill="#000000">name:string</text>
<text text-anchor="start" x="57.657" y="-129" font-family="Helvetica,sans-Serif" font-size="10.00" fill="#000000"> distance:number</text>
<text text-anchor="start" x="14.5955" y="-117" font-family="Helvetica,sans-Serif" font-size="10.00" fill="#000000"> xPosition:number, yPosition:number</text>
<polygon fill="none" stroke="#000000" points=".5,0 .5,-104 191.5,-104 191.5,0 .5,0"/>
<text text-anchor="start" x="13.764" y="-85" font-family="Helvetica,sans-Serif" font-size="10.00" fill="#000000"> setDistance(distanceRaced:number)</text>
<text text-anchor="start" x="66.2755" y="-73" font-family="Helvetica,sans-Serif" font-size="10.00" fill="#000000">getDistance()</text>
<text text-anchor="start" x="64.0515" y="-61" font-family="Helvetica,sans-Serif" font-size="10.00" fill="#000000">getxPostition()</text>
<text text-anchor="start" x="65.441" y="-49" font-family="Helvetica,sans-Serif" font-size="10.00" fill="#000000">getyPosition()</text>
<text text-anchor="start" x="71" y="-37" font-family="Helvetica,sans-Serif" font-size="10.00" fill="#000000"> getName()</text>
<text text-anchor="start" x="10.4345" y="-25" font-family="Helvetica,sans-Serif" font-size="10.00" fill="#000000">draw(ctx:CanvasRenderingContext2D)</text>
<text text-anchor="start" x="39.326" y="-13" font-family="Helvetica,sans-Serif" font-size="10.00" fill="#000000">loadImage(source: string)</text>
</g>
<!-- A0&#45;&gt;A1 -->
<g id="edge1" class="edge">
<title>A0&#45;&gt;A1</title>
<path fill="none" stroke="#000000" d="M144.0216,-253.9954C139.7924,-240.7474 135.4631,-227.1856 131.2162,-213.882"/>
<polygon fill="#000000" stroke="#000000" points="128.1409,-204.2487 135.469,-212.4065 129.6615,-209.0119 131.1821,-213.775 131.1821,-213.775 131.1821,-213.775 129.6615,-209.0119 126.8952,-215.1436 128.1409,-204.2487 128.1409,-204.2487"/>
</g>
<!-- A2 -->
<g id="node3" class="node">
<title>A2</title>
<polygon fill="none" stroke="#000000" points="315.8566,-120 209.1434,-120 209.1434,-84 315.8566,-84 315.8566,-120"/>
<text text-anchor="middle" x="262.5" y="-99" font-family="Helvetica,sans-Serif" font-size="10.00" fill="#000000">KeyboardListener</text>
</g>
<!-- A0&#45;&gt;A2 -->
<g id="edge2" class="edge">
<title>A0&#45;&gt;A2</title>
<path fill="none" stroke="#000000" d="M213.3938,-253.9954C228.071,-208.5661 243.9406,-159.4458 253.5499,-129.7026"/>
<polygon fill="#000000" stroke="#000000" points="256.6756,-120.028 257.8833,-130.9272 255.1384,-124.7859 253.6012,-129.5437 253.6012,-129.5437 253.6012,-129.5437 255.1384,-124.7859 249.3191,-128.1603 256.6756,-120.028 256.6756,-120.028"/>
</g>
</g>
</svg>
